<?xml version="1.0" encoding="UTF-8" standalone="no"?>
<svg
   data-root-id="1789911234"
   y="393.867"
   viewBox="222 306 99.498751 202.0306"
   xml:space="preserve"
   height="55.973846"
   width="41.894211"
   preserveAspectRatio="xMinYMin"
   data-layer-role="icon"
   version="1.1"
   id="svg194"
   sodipodi:docname="ehlo.svg"
   inkscape:version="1.2.2 (b0a8486541, 2022-12-01)"
   xmlns:inkscape="http://www.inkscape.org/namespaces/inkscape"
   xmlns:sodipodi="http://sodipodi.sourceforge.net/DTD/sodipodi-0.dtd"
   xmlns="http://www.w3.org/2000/svg"
   xmlns:svg="http://www.w3.org/2000/svg"><defs
   id="defs198" /><sodipodi:namedview
   id="namedview196"
   pagecolor="#ffffff"
   bordercolor="#000000"
   borderopacity="0.25"
   inkscape:showpageshadow="2"
   inkscape:pageopacity="0.0"
   inkscape:pagecheckerboard="0"
   inkscape:deskcolor="#d1d1d1"
   showgrid="false"
   inkscape:zoom="11.313709"
   inkscape:cx="46.182912"
   inkscape:cy="33.45499"
   inkscape:window-width="2560"
   inkscape:window-height="1355"
   inkscape:window-x="0"
   inkscape:window-y="0"
   inkscape:window-maximized="1"
   inkscape:current-layer="svg194" />
  <path
   class="st0"
   style="clip-rule:evenodd;fill:#5a915b;fill-rule:evenodd"
   data-layer-id="9606358357583"
   d="m 341.72,407.2056 v 22.59 l 14.83,-5.56 14.84,-5.57 v -22.25 l -0.46,-0.17 -14.38,5.39 z"
   id="path2" />
  <path
   d="m 343.54,407.8756 v 19.87 l 26.03,-9.76 v -19.87 z m -3.65,21.92 v -22.59 h 0.01 c 0,-0.41 0.33,-0.8 0.91,-1.02 9.73,-3.65 19.45,-7.33 29.21,-10.95 0.55,-0.2 1.23,-0.22 1.81,0 l 0.31,0.12 c 0.63,0.19 1.06,0.6 1.06,1.08 v 22.25 h -0.01 c 0,0.41 -0.33,0.81 -0.91,1.02 l -29.52,11.07 c -0.3,0.14 -0.66,0.22 -1.05,0.22 -1,-0.02 -1.82,-0.55 -1.82,-1.2 z"
   style="fill:#1f371c"
   data-layer-id="1450563757583"
   id="path4" />
  <path
   class="st0"
   style="clip-rule:evenodd;fill:#5a915b;fill-rule:evenodd"
   data-layer-id="7794898357583"
   d="m 341.72,384.9456 v 22.6 l 14.83,-5.57 14.84,-5.56 v -22.25 l -0.46,-0.17 -14.38,5.39 z"
   id="path6" />
  <path
   d="m 343.54,385.6256 v 19.87 l 26.03,-9.76 v -19.87 z m -3.65,21.92 v -22.59 h 0.01 c 0,-0.41 0.33,-0.8 0.91,-1.02 9.73,-3.65 19.45,-7.33 29.21,-10.95 0.55,-0.2 1.23,-0.22 1.81,0 l 0.31,0.12 c 0.63,0.19 1.06,0.6 1.06,1.08 v 22.25 h -0.01 c 0,0.41 -0.33,0.81 -0.91,1.02 l -29.52,11.07 c -0.3,0.14 -0.66,0.22 -1.05,0.22 -1,-0.02 -1.82,-0.55 -1.82,-1.2 z"
   style="fill:#1f371c"
   data-layer-id="1743656757583"
   id="path8" />
  <path
   class="st0"
   style="clip-rule:evenodd;fill:#5a915b;fill-rule:evenodd"
   data-layer-id="7187344557583"
   d="m 341.72,362.6956 v 22.59 l 14.83,-5.56 14.84,-5.56 v -22.25 l -0.46,-0.18 -14.38,5.4 z"
   id="path10" />
  <path
   d="m 343.54,363.3756 v 19.87 l 26.03,-9.76 v -19.87 z m -3.65,21.91 v -22.59 h 0.01 c 0,-0.41 0.33,-0.8 0.91,-1.02 9.73,-3.65 19.45,-7.33 29.21,-10.95 0.55,-0.2 1.23,-0.22 1.81,0 l 0.31,0.12 c 0.63,0.19 1.06,0.6 1.06,1.08 v 22.25 h -0.01 c 0,0.41 -0.33,0.8 -0.91,1.02 l -29.52,11.07 c -0.3,0.14 -0.66,0.22 -1.05,0.22 -1,-0.01 -1.82,-0.54 -1.82,-1.2 z"
   style="fill:#1f371c"
   data-layer-id="2760847857583"
   id="path12" />
  
  <path
   class="st1"
   style="clip-rule:evenodd;fill:#487149;fill-rule:evenodd"
   data-layer-id="441548657583"
   d="m 341.26,340.7856 30.13,11.3 -14.84,5.56 -14.83,5.56 -14.84,-5.56 -14.83,-5.56 v -0.34 l 14.38,-5.4 z"
   id="path16" />
  <path
   d="m 342.27,339.8056 30.03,11.26 c 0.87,0.32 1.17,1.04 0.67,1.61 -0.17,0.19 -0.4,0.33 -0.66,0.43 l -29.67,11.13 c -0.59,0.22 -1.28,0.2 -1.83,0 l -29.68,-11.13 c -0.58,-0.22 -0.91,-0.61 -0.91,-1.02 v -0.34 c 0,-0.47 0.42,-0.87 1.03,-1.07 l 29.1,-10.91 c 0.62,-0.23 1.36,-0.2 1.92,0.04 z m 25.49,12.28 -26.49,-9.93 -26.04,9.76 26.49,9.93 z"
   style="fill:#1f371c"
   data-layer-id="9961090457583"
   id="path18" />
  <path
   class="st0"
   style="clip-rule:evenodd;fill:#5a915b;fill-rule:evenodd"
   data-layer-id="2133061957583"
   d="m 328.59,469.5806 v 22.59 l 14.84,-5.56 14.83,-5.56 v -22.26 l -0.45,-0.17 -14.38,5.4 z"
   id="path20" />
  <path
   d="m 330.42,470.2606 v 19.87 l 26.03,-9.76 v -19.87 z m -3.65,21.91 v -22.6 h 0.01 c 0,-0.41 0.33,-0.8 0.91,-1.02 9.74,-3.65 19.45,-7.33 29.21,-10.96 0.55,-0.2 1.23,-0.22 1.81,0 l 0.31,0.12 c 0.63,0.19 1.07,0.6 1.07,1.08 v 22.25 h -0.01 c 0,0.41 -0.33,0.8 -0.91,1.02 l -29.52,11.07 c -0.3,0.14 -0.66,0.22 -1.06,0.22 -1,0.01 -1.82,-0.52 -1.82,-1.18 z"
   style="fill:#1f371c"
   data-layer-id="3231403457583"
   id="path22" />
  <path
   class="st0"
   style="clip-rule:evenodd;fill:#5a915b;fill-rule:evenodd"
   data-layer-id="7123448557583"
   d="m 328.59,469.5806 v 22.59 l -14.83,-5.56 -14.84,-5.56 v -22.26 l 0.46,-0.17 14.38,5.4 z"
   id="path24" />
  <path
   d="m 330.42,469.5806 v 22.6 c 0,0.65 -0.82,1.18 -1.82,1.18 -0.39,0 -0.76,-0.08 -1.05,-0.22 l -29.52,-11.07 c -0.58,-0.22 -0.91,-0.61 -0.91,-1.02 h -0.01 v -22.25 c 0,-0.48 0.44,-0.89 1.07,-1.08 l 0.31,-0.12 c 0.58,-0.22 1.27,-0.2 1.81,0 9.76,3.62 19.48,7.3 29.22,10.96 0.56,0.21 0.89,0.61 0.9,1.02 z m -3.65,20.55 v -19.87 l -26.03,-9.76 v 19.87 z"
   style="fill:#1f371c"
   data-layer-id="3816026157583"
   id="path26" />
  <path
   class="st1"
   style="clip-rule:evenodd;fill:#487149;fill-rule:evenodd"
   data-layer-id="295138857583"
   d="m 328.14,447.6706 30.12,11.3 -14.83,5.56 -14.84,5.56 -14.83,-5.56 -14.84,-5.56 v -0.35 l 14.38,-5.39 z"
   id="path28" />
  <path
   d="m 329.14,446.6806 30.03,11.26 c 0.87,0.32 1.17,1.04 0.67,1.61 -0.16,0.19 -0.4,0.33 -0.66,0.43 l -29.67,11.13 c -0.59,0.22 -1.28,0.2 -1.83,0 l -29.67,-11.12 c -0.58,-0.22 -0.91,-0.62 -0.91,-1.02 l -0.01,-0.34 c 0,-0.47 0.42,-0.87 1.03,-1.06 l 29.1,-10.91 c 0.62,-0.25 1.37,-0.22 1.92,0.02 z m 25.49,12.28 -26.49,-9.93 -26.04,9.76 26.49,9.93 z"
   style="fill:#1f371c"
   data-layer-id="6677420757583"
   id="path30" />
  <path
   class="st0"
   style="clip-rule:evenodd;fill:#5a915b;fill-rule:evenodd"
   data-layer-id="5201516857583"
   d="m 323.07,449.4006 v 14.87 l 9.76,-3.66 9.77,-3.66 v -14.65 l -0.3,-0.11 -9.47,3.55 z"
   id="path32" />
  <path
   d="m 324.89,450.0806 v 12.15 l 15.88,-5.95 v -12.15 z m -3.65,14.19 v -14.87 c 0,-0.41 0.33,-0.8 0.91,-1.02 6.41,-2.4 12.81,-4.83 19.23,-7.21 0.55,-0.2 1.23,-0.22 1.81,0 l 0.15,0.06 c 0.63,0.19 1.07,0.6 1.07,1.08 v 14.65 h -0.01 c 0,0.41 -0.33,0.8 -0.91,1.02 l -19.41,7.28 c -0.29,0.13 -0.64,0.2 -1.02,0.2 -1,0 -1.82,-0.53 -1.82,-1.19 z"
   style="fill:#1f371c"
   data-layer-id="3958404557583"
   id="path34" />
  <path
   class="st1"
   style="clip-rule:evenodd;fill:#487149;fill-rule:evenodd"
   data-layer-id="1580884457583"
   d="m 323.07,449.4006 v 14.87 l -9.77,-3.66 -9.76,-3.66 v -14.65 l 0.3,-0.11 9.46,3.55 z"
   id="path36" />
  <path
   d="m 324.89,449.4006 v 14.87 c 0,0.65 -0.82,1.18 -1.82,1.18 -0.39,0 -0.76,-0.08 -1.05,-0.22 l -19.38,-7.27 c -0.58,-0.22 -0.91,-0.61 -0.91,-1.02 h -0.01 v -14.65 c 0,-0.48 0.44,-0.89 1.07,-1.08 l 0.15,-0.06 c 0.58,-0.22 1.27,-0.2 1.81,0 6.42,2.38 12.82,4.81 19.23,7.21 0.57,0.24 0.9,0.63 0.91,1.04 z m -3.65,12.83 v -12.15 l -15.89,-5.96 v 12.15 z"
   style="fill:#1f371c"
   data-layer-id="1621429757583"
   id="path38" />
  <path
   class="st1"
   style="clip-rule:evenodd;fill:#487149;fill-rule:evenodd"
   data-layer-id="6172045157583"
   d="m 323.07,434.4456 v 14.87 l -9.77,-3.66 -9.76,-3.66 v -14.64 l 0.3,-0.12 9.46,3.55 z"
   id="path40" />
  
  
  
  
  
  
  <path
   d="m 324.89,449.0956 v 14.87 c 0,0.65 -0.82,1.18 -1.82,1.18 -0.39,0 -0.76,-0.08 -1.05,-0.22 l -19.39,-7.27 c -0.58,-0.22 -0.91,-0.62 -0.91,-1.02 l -0.01,-14.65 c 0,-0.48 0.44,-0.89 1.07,-1.08 l 0.15,-0.06 c 0.58,-0.22 1.27,-0.2 1.81,0 6.42,2.38 12.82,4.81 19.23,7.21 0.58,0.24 0.91,0.63 0.92,1.04 z m -3.65,12.83 v -12.15 l -15.89,-5.96 v 12.15 z"
   style="fill:#1f371c"
   data-layer-id="6494413657583"
   id="path54" />
  <path
   class="st0"
   style="clip-rule:evenodd;fill:#5a915b;fill-rule:evenodd"
   data-layer-id="5956742857583"
   d="m 323.07,434.4456 v 14.87 l 9.76,-3.66 9.77,-3.66 v -14.64 l -0.3,-0.12 -9.47,3.55 z"
   id="path56" />
  <path
   d="m 324.89,435.1256 v 12.15 l 15.88,-5.96 v -12.15 z m -3.65,14.19 v -14.87 h 0.01 c 0,-0.41 0.33,-0.8 0.91,-1.02 6.41,-2.4 12.8,-4.82 19.23,-7.21 0.55,-0.2 1.23,-0.22 1.81,0 l 0.15,0.06 c 0.63,0.19 1.07,0.6 1.07,1.08 v 14.65 c 0,0.41 -0.33,0.8 -0.91,1.02 l -19.39,7.27 c -0.3,0.14 -0.66,0.22 -1.05,0.22 -1.01,-0.01 -1.83,-0.54 -1.83,-1.2 z"
   style="fill:#1f371c"
   data-layer-id="9454038857583"
   id="path58" />
  <path
   d="m 324.89,434.4456 v 14.87 c 0,0.65 -0.82,1.18 -1.82,1.18 -0.39,0 -0.76,-0.08 -1.05,-0.22 l -19.39,-7.27 c -0.58,-0.22 -0.91,-0.61 -0.91,-1.02 l -0.01,-14.65 c 0,-0.48 0.44,-0.89 1.07,-1.08 l 0.15,-0.06 c 0.58,-0.22 1.27,-0.2 1.81,0 6.42,2.38 12.82,4.81 19.23,7.21 0.58,0.24 0.91,0.64 0.92,1.04 z m -3.65,12.83 v -12.15 l -15.89,-5.96 v 12.15 z"
   style="fill:#1f371c"
   data-layer-id="1803903757583"
   id="path60" />
  <path
   class="st0"
   style="clip-rule:evenodd;fill:#5a915b;fill-rule:evenodd"
   data-layer-id="779481357583"
   d="m 322.77,420.0256 19.83,7.44 -9.77,3.66 -9.76,3.66 -9.77,-3.66 -9.76,-3.66 v -0.23 l 9.46,-3.55 z"
   id="path62" />
  <path
   d="m 323.77,419.0456 19.73,7.4 c 0.87,0.32 1.17,1.04 0.67,1.61 -0.16,0.19 -0.4,0.33 -0.67,0.43 l -19.53,7.33 c -0.58,0.22 -1.28,0.21 -1.83,0 l -19.52,-7.32 c -0.58,-0.22 -0.91,-0.62 -0.91,-1.02 l -0.01,-0.22 c 0,-0.48 0.44,-0.89 1.07,-1.08 l 19.08,-7.16 c 0.62,-0.24 1.36,-0.21 1.92,0.03 z m 15.19,8.42 -16.19,-6.07 -15.9,5.96 16.2,6.07 z"
   style="fill:#1f371c"
   data-layer-id="9365930757583"
   id="path64" />
  <path
   class="st0"
   style="clip-rule:evenodd;fill:#5a915b;fill-rule:evenodd"
   data-layer-id="7444217857583"
   d="m 323.07,419.9156 v 14.87 l 9.76,-3.66 9.77,-3.66 v -14.65 l -0.3,-0.11 -9.47,3.55 z"
   id="path66" />
  <path
   d="m 324.89,420.5956 v 12.15 l 15.88,-5.96 v -12.15 z m -3.65,14.19 v -14.87 h 0.01 c 0,-0.41 0.33,-0.8 0.91,-1.02 6.41,-2.4 12.8,-4.82 19.23,-7.21 0.55,-0.2 1.23,-0.22 1.81,0 l 0.15,0.06 c 0.63,0.19 1.07,0.6 1.07,1.08 v 14.65 c 0,0.41 -0.33,0.8 -0.91,1.02 l -19.39,7.27 c -0.3,0.14 -0.66,0.22 -1.05,0.22 -1.01,-0.01 -1.83,-0.54 -1.83,-1.2 z"
   style="fill:#1f371c"
   data-layer-id="3865956757583"
   id="path68" />
  <path
   class="st0"
   style="clip-rule:evenodd;fill:#5a915b;fill-rule:evenodd"
   data-layer-id="942033357583"
   d="m 289.08,484.2606 v 22.59 l 14.84,-5.56 14.84,-5.57 v -22.25 l -0.46,-0.17 -14.38,5.39 z"
   id="path70" />
  <path
   d="m 290.91,484.9406 v 19.87 l 26.03,-9.76 v -19.87 z m -3.65,21.91 v -22.59 c 0,-0.41 0.33,-0.8 0.91,-1.02 9.73,-3.65 19.46,-7.33 29.22,-10.96 0.55,-0.2 1.23,-0.22 1.81,0 l 0.31,0.11 c 0.63,0.19 1.07,0.6 1.07,1.08 v 22.25 h -0.01 c 0,0.41 -0.33,0.8 -0.91,1.02 l -29.56,11.09 c -0.29,0.13 -0.64,0.2 -1.02,0.2 -1,0 -1.82,-0.53 -1.82,-1.18 z"
   style="fill:#1f371c"
   data-layer-id="7037992457583"
   id="path72" />
  <path
   class="st1"
   style="clip-rule:evenodd;fill:#487149;fill-rule:evenodd"
   data-layer-id="6308042957583"
   d="m 289.08,484.2606 v 22.59 l -14.83,-5.56 -14.84,-5.57 v -22.25 l 0.46,-0.17 14.38,5.39 z"
   id="path74" />
  <path
   d="m 290.9,484.2606 v 22.59 c 0,0.65 -0.82,1.18 -1.82,1.18 -0.38,0 -0.73,-0.07 -1.02,-0.2 l -29.56,-11.09 c -0.58,-0.22 -0.91,-0.61 -0.91,-1.02 h -0.01 v -22.25 c 0,-0.48 0.44,-0.89 1.07,-1.08 l 0.31,-0.11 c 0.58,-0.22 1.27,-0.2 1.81,0 9.76,3.62 19.49,7.31 29.22,10.96 0.59,0.21 0.91,0.61 0.91,1.02 z m -3.64,20.54 v -19.87 l -26.03,-9.76 v 19.87 z"
   style="fill:#1f371c"
   data-layer-id="7618107257583"
   id="path76" />
  <path
   class="st0"
   style="clip-rule:evenodd;fill:#5a915b;fill-rule:evenodd"
   data-layer-id="1478899657583"
   d="m 288.63,462.3406 30.13,11.3 -14.84,5.56 -14.84,5.57 -14.83,-5.57 -14.84,-5.56 v -0.34 l 14.38,-5.39 z"
   id="path78" />
  <path
   d="m 289.53,461.3206 30.13,11.3 c 0.87,0.32 1.17,1.05 0.67,1.61 -0.17,0.19 -0.4,0.33 -0.67,0.43 l -29.66,11.13 c -0.59,0.22 -1.28,0.2 -1.83,0 l -29.66,-11.13 c -0.58,-0.22 -0.91,-0.61 -0.91,-1.02 h -0.01 v -0.34 c 0,-0.48 0.44,-0.89 1.06,-1.08 l 29.07,-10.9 c 0.58,-0.21 1.27,-0.2 1.81,0 z m 25.6,12.32 -26.5,-9.94 -26.04,9.77 26.5,9.93 z"
   style="fill:#1f371c"
   data-layer-id="680562657584"
   id="path80" />
  <path
   class="st0"
   style="clip-rule:evenodd;fill:#5a915b;fill-rule:evenodd"
   data-layer-id="345685157584"
   d="m 283.56,464.0806 v 14.87 l 9.76,-3.66 9.77,-3.66 v -14.65 l -0.3,-0.11 -9.47,3.55 z"
   id="path82" />
  <path
   d="m 285.38,464.7606 v 12.14 l 15.88,-5.95 v -12.15 z m -3.64,14.19 v -14.87 c 0.01,-0.41 0.33,-0.8 0.91,-1.02 l 19.14,-7.17 c 0.56,-0.24 1.3,-0.27 1.92,-0.04 l 0.19,0.07 c 0.61,0.19 1.03,0.6 1.03,1.06 v 14.65 h -0.01 c 0,0.41 -0.33,0.8 -0.91,1.02 l -19.41,7.28 c -0.29,0.13 -0.64,0.2 -1.02,0.2 -1.03,0 -1.84,-0.53 -1.84,-1.18 z"
   style="fill:#1f371c"
   data-layer-id="6528423157584"
   id="path84" />
  <path
   class="st1"
   style="clip-rule:evenodd;fill:#487149;fill-rule:evenodd"
   data-layer-id="4069241657584"
   d="m 283.56,464.0806 v 14.87 l -9.77,-3.66 -9.76,-3.66 v -14.65 l 0.3,-0.11 9.46,3.55 z"
   id="path86" />
  <path
   d="m 285.38,464.0806 v 14.87 c 0,0.65 -0.82,1.18 -1.82,1.18 -0.39,0 -0.76,-0.08 -1.05,-0.22 l -19.38,-7.27 c -0.58,-0.22 -0.91,-0.61 -0.91,-1.02 h -0.01 v -14.65 c 0,-0.47 0.42,-0.87 1.03,-1.06 l 0.19,-0.07 c 0.62,-0.23 1.36,-0.2 1.92,0.04 l 19.13,7.17 c 0.56,0.22 0.89,0.62 0.9,1.03 z m -3.64,12.82 v -12.15 l -15.89,-5.96 v 12.15 z"
   style="fill:#1f371c"
   data-layer-id="8398219957584"
   id="path88" />
  <path
   class="st0"
   style="clip-rule:evenodd;fill:#5a915b;fill-rule:evenodd"
   data-layer-id="7793349557584"
   d="m 283.26,449.6606 19.83,7.43 -9.77,3.66 -9.76,3.66 -9.77,-3.66 -9.76,-3.66 v -0.22 l 9.46,-3.55 z"
   id="path90" />
  <path
   d="m 284.16,448.6306 19.83,7.44 c 0.87,0.32 1.17,1.05 0.67,1.61 -0.17,0.19 -0.4,0.33 -0.67,0.43 l -19.52,7.32 c -0.62,0.23 -1.36,0.2 -1.92,-0.04 l -19.43,-7.29 c -0.58,-0.22 -0.91,-0.61 -0.91,-1.02 h -0.01 v -0.23 c 0,-0.47 0.42,-0.87 1.03,-1.06 l 19.12,-7.17 c 0.58,-0.2 1.27,-0.19 1.81,0.01 z m 15.3,8.46 -16.2,-6.08 -15.9,5.96 16.19,6.07 z"
   style="fill:#1f371c"
   data-layer-id="3034884757584"
   id="path92" />
  <path
   class="st0"
   style="clip-rule:evenodd;fill:#5a915b;fill-rule:evenodd"
   data-layer-id="2604738457584"
   d="m 283.56,449.5406 v 14.87 l 9.76,-3.66 9.77,-3.66 v -14.65 l -0.3,-0.11 -9.47,3.55 z"
   id="path94" />
  <path
   d="m 285.38,450.2206 v 12.14 l 15.88,-5.95 v -12.15 z m -3.64,14.19 v -14.87 c 0.01,-0.41 0.33,-0.8 0.91,-1.02 l 19.14,-7.17 c 0.56,-0.24 1.3,-0.27 1.92,-0.04 l 0.19,0.07 c 0.61,0.19 1.03,0.6 1.03,1.06 v 14.65 h -0.01 c 0,0.41 -0.33,0.8 -0.91,1.02 l -19.41,7.28 c -0.29,0.13 -0.64,0.2 -1.02,0.2 -1.03,0.01 -1.84,-0.52 -1.84,-1.18 z"
   style="fill:#1f371c"
   data-layer-id="3062495157584"
   id="path96" />
  <path
   class="st1"
   style="clip-rule:evenodd;fill:#487149;fill-rule:evenodd"
   data-layer-id="2184610857584"
   d="m 283.56,449.5406 v 14.87 l -9.77,-3.66 -9.76,-3.66 v -14.65 l 0.3,-0.11 9.46,3.55 z"
   id="path98" />
  <path
   d="m 285.38,449.5406 v 14.87 c 0,0.65 -0.82,1.18 -1.82,1.18 -0.39,0 -0.76,-0.08 -1.05,-0.22 l -19.38,-7.27 c -0.58,-0.22 -0.91,-0.61 -0.91,-1.02 h -0.01 v -14.65 c 0,-0.47 0.42,-0.87 1.03,-1.06 l 0.19,-0.07 c 0.62,-0.23 1.36,-0.2 1.92,0.04 l 19.13,7.17 c 0.56,0.23 0.89,0.63 0.9,1.03 z m -3.64,12.83 v -12.15 l -15.89,-5.96 v 12.15 z"
   style="fill:#1f371c"
   data-layer-id="2923438857584"
   id="path100" />
  
  
  
  
  
  
  
  
  
  
  
  
  <path
   class="st0"
   style="clip-rule:evenodd;fill:#5a915b;fill-rule:evenodd"
   data-layer-id="8989465357584"
   d="m 283.56,434.5956 v 14.87 l 9.76,-3.66 9.77,-3.67 v -14.64 l -0.3,-0.11 -9.47,3.55 z"
   id="path126" />
  <path
   d="m 285.38,435.2656 v 12.15 l 15.88,-5.96 v -12.14 z m -3.65,14.2 v -14.87 h 0.01 c 0,-0.41 0.33,-0.8 0.91,-1.02 l 19.22,-7.21 c 0.55,-0.21 1.24,-0.22 1.83,0 l 0.19,0.07 c 0.61,0.19 1.03,0.6 1.03,1.06 v 14.65 c -0.01,0.41 -0.33,0.8 -0.91,1.02 l -19.39,7.27 c -0.3,0.14 -0.66,0.22 -1.06,0.22 -1.01,-0.01 -1.83,-0.54 -1.83,-1.19 z"
   style="fill:#1f371c"
   data-layer-id="3208264357584"
   id="path128" />
  <path
   class="st0"
   style="clip-rule:evenodd;fill:#5a915b;fill-rule:evenodd"
   data-layer-id="6384954657584"
   d="m 283.26,420.1756 19.83,7.43 -9.77,3.66 -9.76,3.66 -9.77,-3.66 -9.76,-3.66 v -0.22 l 9.46,-3.55 z"
   id="path130" />
  <path
   class="st0"
   style="clip-rule:evenodd;fill:#5a915b;fill-rule:evenodd"
   data-layer-id="4592353657584"
   d="m 297.72,389.5956 v 45.11 l 29.62,-11.11 29.61,-11.1 v -44.43 l -0.9,-0.34 -28.71,10.77 z"
   id="path132" />
  <path
   d="m 284.26,419.1856 c 12.62,7.39 15.63,6.74 11.78,12.42 l -11.58,4.34 c -0.58,0.22 -1.27,0.2 -1.81,0 -6.52,-2.42 -13.03,-4.88 -19.54,-7.32 -0.58,-0.22 -0.91,-0.61 -0.91,-1.02 v -0.22 c 0,-0.48 0.44,-0.89 1.06,-1.08 l 19.08,-7.16 c 0.62,-0.23 1.37,-0.2 1.92,0.04 z m -1,2.35 -15.9,5.96 16.2,6.08 12.35,-4.63 z"
   style="fill:#1f371c"
   data-layer-id="9450294557584"
   id="path134" />
  <path
   d="m 299.54,390.2756 v 42.38 l 55.59,-20.84 v -42.38 z m -3.64,44.43 v -45.1 h 0.01 c 0,-0.41 0.33,-0.81 0.91,-1.02 19.44,-7.29 38.84,-14.64 58.32,-21.87 0.55,-0.2 1.23,-0.22 1.81,0 l 0.76,0.29 c 0.63,0.19 1.06,0.6 1.06,1.08 v 44.43 h -0.01 c 0,0.41 -0.33,0.8 -0.91,1.02 l -59.08,22.16 c -0.3,0.14 -0.66,0.22 -1.05,0.22 -1.01,-0.03 -1.82,-0.56 -1.82,-1.21 z"
   style="fill:#1f371c"
   data-layer-id="6430986557584"
   id="path136" />
  <path
   class="st1"
   style="clip-rule:evenodd;fill:#487149;fill-rule:evenodd"
   data-layer-id="9348698757584"
   d="m 297.72,389.5956 v 45.11 l -29.62,-11.11 -29.62,-11.1 v -44.43 l 0.91,-0.34 28.71,10.77 z"
   id="path138" />
  <path
   d="m 299.54,389.5956 v 45.1 c 0,0.65 -0.82,1.18 -1.82,1.18 -0.39,0 -0.76,-0.08 -1.05,-0.22 l -59.08,-22.16 c -0.58,-0.22 -0.91,-0.61 -0.91,-1.02 h -0.01 v -44.43 c 0,-0.48 0.44,-0.89 1.06,-1.08 l 0.76,-0.29 c 0.58,-0.22 1.27,-0.2 1.81,0 19.48,7.23 38.89,14.58 58.33,21.87 0.58,0.25 0.9,0.65 0.91,1.05 z m -3.64,43.06 v -42.38 l -55.59,-20.84 v 42.38 z"
   style="fill:#1f371c"
   data-layer-id="3957168657584"
   id="path140" />
  <path
   class="st1"
   style="clip-rule:evenodd;fill:#487149;fill-rule:evenodd"
   data-layer-id="8868414357584"
   d="m 296.81,345.8556 60.14,22.55 -29.61,11.11 -29.62,11.11 -29.62,-11.11 -29.62,-11.11 v -0.68 l 28.71,-10.76 z"
   id="path142" />
  <path
   d="m 297.81,344.87258 60.04,22.17519 c 0.87,0.3151 1.17,1.03393 0.67,1.58535 -0.16,0.18709 -0.4,0.32495 -0.66,0.42342 l -59.23,21.86994 c -0.58,0.21663 -1.28,0.19694 -1.83,0 l -59.22,-21.86994 c -0.58,-0.21663 -0.91,-0.60066 -0.91,-1.00438 h -0.01 v -0.66959 c 0,-0.47265 0.44,-0.87638 1.06,-1.06347 l 58.17,-21.48591 c 0.63,-0.22648 1.37,-0.19694 1.92,0.0394 z m 55.51,23.16973 -56.51,-20.86556 -55.61,20.53076 56.51,20.86556 z"
   style="fill:#1f371c;stroke-width:0.992315"
   data-layer-id="9727774157584"
   id="path144" />
  <path
   class="st0"
   style="clip-rule:evenodd;fill:#5a915b;fill-rule:evenodd"
   data-layer-id="1487892457584"
   d="m 297.72,342.0356 v 35.94 l 23.6,-8.85 23.6,-8.85 v -35.4 l -0.72,-0.27 -22.88,8.58 z"
   id="path146" />
  <path
   d="m 299.54,342.7056 v 33.22 l 43.56,-16.33 v -33.22 z m -3.64,35.27 v -35.94 h 0.01 c 0,-0.41 0.33,-0.81 0.91,-1.02 l 46.47,-17.43 c 0.54,-0.2 1.23,-0.22 1.82,0 l 0.58,0.22 c 0.63,0.19 1.06,0.6 1.06,1.08 v 35.4 h -0.01 c 0,0.41 -0.33,0.81 -0.91,1.02 l -47.05,17.64 c -0.3,0.14 -0.66,0.22 -1.05,0.22 -1.02,-0.01 -1.83,-0.54 -1.83,-1.19 z"
   style="fill:#1f371c"
   data-layer-id="9691931757584"
   id="path148" />
  <path
   class="st1"
   style="clip-rule:evenodd;fill:#487149;fill-rule:evenodd"
   data-layer-id="6820932457584"
   d="m 297.72,342.0356 v 35.94 l -23.6,-8.85 -23.6,-8.85 v -35.4 l 0.72,-0.27 22.88,8.58 z"
   id="path150" />
  <path
   d="m 299.54,342.0356 v 35.94 c 0,0.65 -0.82,1.18 -1.82,1.18 -0.39,0 -0.76,-0.08 -1.05,-0.22 l -47.05,-17.64 c -0.58,-0.22 -0.91,-0.61 -0.91,-1.02 h -0.01 v -35.4 c 0,-0.48 0.44,-0.89 1.06,-1.08 l 0.58,-0.22 c 0.58,-0.22 1.27,-0.2 1.81,0 l 46.47,17.43 c 0.59,0.22 0.91,0.62 0.92,1.03 z m -3.64,33.9 v -33.23 l -43.56,-16.33 v 33.22 z"
   style="fill:#1f371c"
   data-layer-id="7442382257584"
   id="path152" />
  <path
   class="st0"
   style="clip-rule:evenodd;fill:#5a915b;fill-rule:evenodd"
   data-layer-id="9722892357584"
   d="m 296.99,307.1756 47.93,17.97 -23.6,8.85 -23.6,8.85 -23.6,-8.85 -23.6,-8.85 v -0.54 l 22.87,-8.58 z"
   id="path154" />
  <path
   class="st0"
   style="clip-rule:evenodd;fill:#5a915b;fill-rule:evenodd"
   data-layer-id="4118168557584"
   d="m 253.49,440.2856 v 22.59 l 14.84,-5.56 14.84,-5.56 v -22.26 l -0.46,-0.17 -14.38,5.4 z"
   id="path156" />
  <path
   d="m 298,306.1956 47.83,17.93 c 0.87,0.32 1.17,1.04 0.67,1.61 -0.17,0.19 -0.4,0.33 -0.66,0.43 l -47.2,17.7 c -0.58,0.22 -1.28,0.2 -1.83,0 l -47.19,-17.7 c -0.58,-0.22 -0.91,-0.61 -0.91,-1.02 h -0.01 v -0.54 c 0,-0.47 0.42,-0.87 1.03,-1.06 l 46.36,-17.38 a 2.62,2.62 0 0 1 1.91,0.03 z m 43.29,18.95 -44.29,-16.61 -43.57,16.34 44.29,16.61 z"
   style="fill:#1f371c"
   data-layer-id="8637196957584"
   id="path158" />
  <path
   class="st0"
   style="clip-rule:evenodd;fill:#5a915b;fill-rule:evenodd"
   data-layer-id="3385433857584"
   d="m 253.49,395.7756 v 22.6 l 14.84,-5.57 14.84,-5.56 v -22.25 l -0.46,-0.17 -14.38,5.39 z"
   id="path160" />
  <path
   d="m 255.32,440.9656 v 19.87 l 26.03,-9.76 v -19.87 z m -3.65,21.91 v -22.59 h 0.01 c 0,-0.41 0.33,-0.8 0.91,-1.02 9.74,-3.65 19.46,-7.33 29.21,-10.95 0.54,-0.2 1.23,-0.22 1.81,0 l 0.31,0.12 c 0.63,0.19 1.07,0.6 1.07,1.08 v 22.25 h -0.01 c 0,0.41 -0.33,0.81 -0.91,1.02 l -29.52,11.07 c -0.3,0.14 -0.66,0.22 -1.05,0.22 -1.01,-0.01 -1.83,-0.54 -1.83,-1.2 z"
   style="fill:#1f371c"
   data-layer-id="9596223657584"
   id="path162" />
  <path
   class="st1"
   style="clip-rule:evenodd;fill:#487149;fill-rule:evenodd"
   data-layer-id="247978957584"
   d="m 253.49,440.2856 v 22.59 l -14.83,-5.56 -14.84,-5.56 v -22.26 l 0.46,-0.17 14.38,5.4 z"
   id="path164" />
  <path
   d="m 255.32,440.2856 v 22.59 c 0,0.65 -0.82,1.18 -1.82,1.18 -0.39,0 -0.76,-0.08 -1.05,-0.22 l -29.52,-11.07 c -0.58,-0.22 -0.91,-0.61 -0.91,-1.02 H 222 v -22.25 c 0,-0.48 0.44,-0.89 1.06,-1.08 l 0.31,-0.12 c 0.58,-0.22 1.27,-0.2 1.81,0 9.76,3.62 19.48,7.3 29.22,10.96 0.58,0.22 0.91,0.62 0.92,1.03 z m -3.65,20.55 v -19.87 l -26.03,-9.76 v 19.87 z"
   style="fill:#1f371c"
   data-layer-id="6608060657584"
   id="path166" />
  <path
   class="st0"
   style="clip-rule:evenodd;fill:#5a915b;fill-rule:evenodd"
   data-layer-id="7667564457584"
   d="m 253.04,418.3756 30.12,11.29 -14.83,5.57 -14.84,5.56 -14.83,-5.56 -14.84,-5.57 v -0.34 l 14.38,-5.39 z"
   id="path168" />
  <path
   d="m 254.04,417.3856 30.03,11.26 c 0.87,0.32 1.17,1.04 0.67,1.61 -0.16,0.18 -0.4,0.33 -0.66,0.43 l -29.67,11.13 c -0.59,0.22 -1.28,0.21 -1.83,0 l -29.67,-11.12 c -0.58,-0.22 -0.91,-0.62 -0.91,-1.02 v -0.34 c 0,-0.47 0.42,-0.87 1.03,-1.06 l 29.1,-10.91 a 2.57,2.57 0 0 1 1.91,0.02 z m 25.49,12.28 -26.49,-9.93 -26.04,9.76 26.49,9.93 z"
   style="fill:#1f371c"
   data-layer-id="478809457584"
   id="path170" />
  <path
   class="st0"
   style="clip-rule:evenodd;fill:#5a915b;fill-rule:evenodd"
   data-layer-id="5588052457584"
   d="m 253.49,418.0356 v 22.59 l 14.84,-5.56 14.84,-5.57 v -22.25 l -0.46,-0.17 -14.38,5.39 z"
   id="path172" />
  <path
   d="m 255.32,418.7056 v 19.87 l 26.03,-9.76 v -19.87 z m -3.65,21.92 v -22.59 h 0.01 c 0,-0.41 0.33,-0.8 0.91,-1.02 9.74,-3.65 19.46,-7.33 29.21,-10.95 0.54,-0.2 1.23,-0.22 1.81,0 l 0.31,0.12 c 0.63,0.19 1.07,0.6 1.07,1.08 v 22.25 h -0.01 c 0,0.41 -0.33,0.81 -0.91,1.02 l -29.52,11.07 c -0.3,0.14 -0.66,0.22 -1.05,0.22 -1.01,-0.02 -1.83,-0.55 -1.83,-1.2 z"
   style="fill:#1f371c"
   data-layer-id="3939018457584"
   id="path174" />
  <path
   class="st1"
   style="clip-rule:evenodd;fill:#487149;fill-rule:evenodd"
   data-layer-id="5675089457584"
   d="m 253.49,418.0356 v 22.59 l -14.83,-5.56 -14.84,-5.57 v -22.25 l 0.46,-0.17 14.38,5.39 z"
   id="path176" />
  <path
   d="m 255.32,418.0356 v 22.59 c 0,0.65 -0.82,1.18 -1.82,1.18 -0.39,0 -0.76,-0.08 -1.05,-0.22 l -29.52,-11.07 c -0.58,-0.22 -0.91,-0.61 -0.91,-1.02 H 222 v -22.25 c 0,-0.48 0.44,-0.89 1.06,-1.08 l 0.31,-0.12 c 0.58,-0.22 1.27,-0.2 1.81,0 9.76,3.62 19.48,7.31 29.22,10.96 0.58,0.22 0.91,0.62 0.92,1.03 z m -3.65,20.55 v -19.88 l -26.03,-9.76 v 19.87 z"
   style="fill:#1f371c"
   data-layer-id="8352683157584"
   id="path178" />
  <path
   d="m 255.32,396.4556 v 19.87 l 26.03,-9.76 v -19.87 z m -3.65,21.92 v -22.59 h 0.01 c 0,-0.41 0.33,-0.8 0.91,-1.02 9.74,-3.65 19.46,-7.33 29.21,-10.95 0.54,-0.2 1.23,-0.22 1.81,0 l 0.31,0.12 c 0.63,0.19 1.07,0.6 1.07,1.08 v 22.25 h -0.01 c 0,0.41 -0.33,0.8 -0.91,1.02 l -29.52,11.07 c -0.3,0.14 -0.66,0.22 -1.05,0.22 -1.01,-0.02 -1.83,-0.55 -1.83,-1.2 z"
   style="fill:#1f371c"
   data-layer-id="8764937357584"
   id="path180" />
  <path
   class="st1"
   style="clip-rule:evenodd;fill:#487149;fill-rule:evenodd"
   data-layer-id="497436657584"
   d="m 253.49,395.7756 v 22.6 l -14.83,-5.57 -14.84,-5.56 v -22.25 l 0.46,-0.17 14.38,5.39 z"
   id="path182" />
  <path
   d="m 255.32,395.7756 v 22.59 c 0,0.65 -0.82,1.18 -1.82,1.18 -0.39,0 -0.76,-0.08 -1.05,-0.22 l -29.52,-11.07 c -0.58,-0.22 -0.91,-0.61 -0.91,-1.02 H 222 v -22.25 c 0,-0.48 0.44,-0.89 1.06,-1.08 l 0.31,-0.12 c 0.58,-0.22 1.27,-0.2 1.81,0 9.76,3.62 19.48,7.3 29.22,10.96 0.58,0.23 0.91,0.62 0.92,1.03 z m -3.65,20.55 v -19.87 l -26.03,-9.76 v 19.87 z"
   style="fill:#1f371c"
   data-layer-id="1981471957584"
   id="path184" />
  <path
   class="st0"
   style="clip-rule:evenodd;fill:#5a915b;fill-rule:evenodd"
   data-layer-id="2428798657584"
   d="m 253.04,373.8656 30.12,11.3 -14.83,5.56 -14.84,5.57 -14.83,-5.57 -14.84,-5.56 v -0.34 l 14.38,-5.39 z"
   id="path186" />
  <path
   d="m 254.04,372.8856 30.03,11.26 c 0.87,0.32 1.17,1.04 0.67,1.61 -0.16,0.19 -0.4,0.33 -0.66,0.43 l -29.67,11.13 c -0.59,0.22 -1.28,0.2 -1.83,0 l -29.67,-11.12 c -0.58,-0.22 -0.91,-0.61 -0.91,-1.02 v -0.34 c 0,-0.47 0.42,-0.87 1.03,-1.06 l 29.1,-10.91 a 2.57,2.57 0 0 1 1.91,0.02 z m 25.49,12.28 -26.49,-9.93 -26.04,9.76 26.49,9.93 z"
   style="fill:#1f371c"
   data-layer-id="8056849757584"
   id="path188" />
  <path
   class="st2"
   d="m 310.21,351.1556 c 3.66,-1.37 6.62,-0.56 6.62,1.82 0,2.37 -2.96,5.41 -6.62,6.78 -3.66,1.37 -6.62,0.56 -6.62,-1.82 0,-2.37 2.96,-5.41 6.62,-6.78 z m 22.22,-8.33 c 3.66,-1.37 6.62,-0.56 6.62,1.82 0,2.37 -2.96,5.41 -6.62,6.78 -3.66,1.37 -6.62,0.56 -6.62,-1.82 0,-2.37 2.96,-5.41 6.62,-6.78 z"
   style="clip-rule:evenodd;fill:#1f371c;fill-rule:evenodd"
   data-layer-id="8843842657584"
   id="path190" />
  
</svg>
